<?xml version="1.0" encoding="UTF-8" standalone="no"?>
<!-- Created with Inkscape (http://www.inkscape.org/) -->

<svg
   xmlns:dc="http://purl.org/dc/elements/1.1/"
   xmlns:cc="http://creativecommons.org/ns#"
   xmlns:rdf="http://www.w3.org/1999/02/22-rdf-syntax-ns#"
   xmlns:svg="http://www.w3.org/2000/svg"
   xmlns="http://www.w3.org/2000/svg"
   xmlns:sodipodi="http://sodipodi.sourceforge.net/DTD/sodipodi-0.dtd"
   xmlns:inkscape="http://www.inkscape.org/namespaces/inkscape"
   width="210mm"
   height="297mm"
   viewBox="0 0 744.09448819 1052.3622047"
   id="svg2"
   version="1.1"
   inkscape:version="0.91 r13725"
   sodipodi:docname="Trump.svg">
  <defs
     id="defs4" />
  <sodipodi:namedview
     id="base"
     pagecolor="#ffffff"
     bordercolor="#666666"
     borderopacity="1.0"
     inkscape:pageopacity="0.0"
     inkscape:pageshadow="2"
     inkscape:zoom="0.49497475"
     inkscape:cx="158.65916"
     inkscape:cy="337.82489"
     inkscape:document-units="px"
     inkscape:current-layer="layer1"
     showgrid="false"
     inkscape:window-width="1280"
     inkscape:window-height="962"
     inkscape:window-x="-8"
     inkscape:window-y="-8"
     inkscape:window-maximized="1" />
  <metadata
     id="metadata7">
    <rdf:RDF>
      <cc:Work
         rdf:about="">
        <dc:format>image/svg+xml</dc:format>
        <dc:type
           rdf:resource="http://purl.org/dc/dcmitype/StillImage" />
        <dc:title></dc:title>
      </cc:Work>
    </rdf:RDF>
  </metadata>
  <g
     inkscape:label="Layer 1"
     inkscape:groupmode="layer"
     id="layer1">
    <g
       id="g4173">
      <path
         style="fill:#f6f600"
         d="m -108.69778,717.80293 c -31.50954,-4.39074 -47.77903,-24.98122 -61.65684,-78.03217 -4.72091,-18.04673 -5.65406,-35.43329 -2.55168,-47.54332 2.1572,-8.42054 5.42212,-16.2295 9.68513,-23.16465 l 2.58662,-4.20797 -3.28161,-1.66009 c -11.0302,-5.57988 -12.57417,-10.07715 -5.70349,-16.61307 7.48613,-7.12138 31.86393,-17.55394 50.99525,-21.82357 34.54951,-7.71059 62.6206,-2.42158 79.9455,15.06292 12.77332,12.891 18.0344,28.97612 12.10194,37.00021 l -2.34585,3.17293 2.09107,7.1383 c 4.98056,17.00222 5.11851,28.70635 0.60127,51.01243 -10.99246,54.28056 -31.11476,77.43514 -69.46731,79.9355 -4.125,0.26892 -9.975,0.14407 -13,-0.27745 z m 45.06574,-106.06735 c 1.98836,-1.06414 2.72237,-4.96482 0.93426,-4.96482 -0.55,0 -1,0.52707 -1,1.17126 0,0.64419 -0.74474,1.99419 -1.65499,3 -1.85,2.04423 -1.18726,2.34987 1.72073,0.79356 z m -77.06574,-4.08285 c 0,-1.1 -0.45,-1.72189 -1,-1.38197 -0.55,0.33992 -1,1.51803 -1,2.61803 0,1.1 0.45,1.72189 1,1.38197 0.55,-0.33992 1,-1.51803 1,-2.61803 z"
         id="path4161"
         inkscape:connector-curvature="0" />
      <path
         style="fill:#9e9e9e"
         d="m -108.69778,717.80293 c -31.50954,-4.39074 -47.77903,-24.98122 -61.65684,-78.03217 -4.72091,-18.04673 -5.65406,-35.43329 -2.55168,-47.54332 2.1572,-8.42054 5.42212,-16.2295 9.68513,-23.16465 l 2.58662,-4.20797 -3.28161,-1.66009 c -11.0302,-5.57988 -12.57417,-10.07715 -5.70349,-16.61307 7.48613,-7.12138 31.86393,-17.55394 50.99525,-21.82357 34.54951,-7.71059 62.6206,-2.42158 79.9455,15.06292 12.77332,12.891 18.0344,28.97612 12.10194,37.00021 l -2.34585,3.17293 2.09107,7.1383 c 4.98056,17.00222 5.11851,28.70635 0.60127,51.01243 -10.99246,54.28056 -31.11476,77.43514 -69.46731,79.9355 -4.125,0.26892 -9.975,0.14407 -13,-0.27745 z m 45.06574,-106.06735 c 1.98836,-1.06414 2.72237,-4.96482 0.93426,-4.96482 -0.55,0 -1,0.52707 -1,1.17126 0,0.64419 -0.74474,1.99419 -1.65499,3 -1.85,2.04423 -1.18726,2.34987 1.72073,0.79356 z m -77.06574,-4.08285 c 0,-1.1 -0.45,-1.72189 -1,-1.38197 -0.55,0.33992 -1,1.51803 -1,2.61803 0,1.1 0.45,1.72189 1,1.38197 0.55,-0.33992 1,-1.51803 1,-2.61803 z m 101.34065,-29.37092 c 9.09565,-3.30862 10.65619,-9.94972 5.01115,-21.32578 -3.50486,-7.06312 -14.2162,-18.06994 -20.85793,-21.43332 -21.12793,-10.69921 -54.72971,-9.25485 -86.99387,3.73938 -9.35346,3.76707 -21.27277,10.32503 -23.37925,12.86317 -1.68892,2.03503 0.98538,3.75233 13.37925,8.59148 19.23371,7.50975 45.61902,14.43147 69,18.10094 15.25864,2.39473 36.49789,2.13512 43.84065,-0.53587 z"
         id="path4159"
         inkscape:connector-curvature="0" />
      <path
         style="fill:#fa7c00"
         d="m -116.49197,715.21414 c -10.0077,-2.69371 -16.35153,-6.51467 -24.74808,-14.90606 -6.77791,-6.77374 -8.85074,-9.68806 -13.18483,-18.53732 -6.01494,-12.28118 -9.96974,-23.62481 -14.88865,-42.70541 -7.22887,-28.04098 -5.3671,-48.65542 6.1166,-67.72599 1.92453,-3.196 3.49915,-6.19724 3.49915,-6.66943 0,-0.47219 -1.9125,-1.81845 -4.25,-2.9917 -5.744,-2.88305 -8.75,-5.80206 -8.75,-8.4968 0,-7.40492 30.11415,-22.22182 57,-28.0454 11.87453,-2.57207 39.69395,-2.62799 49,-0.0985 16.93213,4.60236 30.74065,15.66238 37.60746,30.12192 4.47191,9.41657 4.85895,15.22986 1.42123,21.34646 l -2.34663,4.17527 2.146,7.29478 c 5.48662,18.65046 4.53802,36.88958 -3.47257,66.76821 -11.52187,42.97536 -32.82898,62.17403 -68.76545,61.96077 -6.23561,-0.037 -13.40746,-0.68958 -16.38423,-1.49081 z m 53.15933,-102.51596 c 2.84961,-2.2415 3.47099,-5.98861 1.29285,-7.7963 -1.5176,-1.25949 -2.65799,-0.5272 -2.65799,1.70681 0,2.58485 -3.17648,5.1607 -6.40499,5.19387 -2.93778,0.0302 -2.9964,0.10639 -1.15388,1.5 2.70203,2.04371 5.82652,1.83211 8.92401,-0.60438 z m -76.36514,-1.99316 c 0,-1.68616 0.48646,-3.9747 1.08102,-5.08565 1.50614,-2.81425 0.44417,-3.42275 -2.54981,-1.46102 -2.75414,1.80459 -3.46252,6.2811 -1.33121,8.41241 1.9547,1.9547 2.8,1.39145 2.8,-1.86574 z m 100.34065,-32.42321 c 9.09565,-3.30862 10.65619,-9.94972 5.01115,-21.32578 -3.50486,-7.06312 -14.2162,-18.06994 -20.85793,-21.43332 -21.12793,-10.69921 -54.72971,-9.25485 -86.99387,3.73938 -9.35346,3.76707 -21.27277,10.32503 -23.37925,12.86317 -1.68892,2.03503 0.98538,3.75233 13.37925,8.59148 19.23371,7.50975 45.61902,14.43147 69,18.10094 15.25864,2.39473 36.49789,2.13512 43.84065,-0.53587 z"
         id="path4157"
         inkscape:connector-curvature="0" />
      <path
         style="fill:#5c5c5c"
         d="m -116.49197,715.21414 c -10.0077,-2.69371 -16.35153,-6.51467 -24.74808,-14.90606 -6.77791,-6.77374 -8.85074,-9.68806 -13.18483,-18.53732 -6.01494,-12.28118 -9.96974,-23.62481 -14.88865,-42.70541 -7.22887,-28.04098 -5.3671,-48.65542 6.1166,-67.72599 1.92453,-3.196 3.49915,-6.19724 3.49915,-6.66943 0,-0.47219 -1.9125,-1.81845 -4.25,-2.9917 -5.744,-2.88305 -8.75,-5.80206 -8.75,-8.4968 0,-7.40492 30.11415,-22.22182 57,-28.0454 11.87453,-2.57207 39.69395,-2.62799 49,-0.0985 16.93213,4.60236 30.74065,15.66238 37.60746,30.12192 4.47191,9.41657 4.85895,15.22986 1.42123,21.34646 l -2.34663,4.17527 2.146,7.29478 c 5.48662,18.65046 4.53802,36.88958 -3.47257,66.76821 -11.52187,42.97536 -32.82898,62.17403 -68.76545,61.96077 -6.23561,-0.037 -13.40746,-0.68958 -16.38423,-1.49081 z m 32.56335,-5.95102 c 21.4314,-5.05289 35.01974,-19.68809 44.09518,-47.49236 8.5032,-26.05108 11.31568,-50.53956 7.65258,-66.63169 -2.19853,-9.6582 -3.25939,-11.00234 -7.51324,-9.51944 -1.81617,0.63312 -4.35998,1.15113 -5.6529,1.15113 -2.95655,0 -2.93765,0.36402 0.23495,4.52351 1.42215,1.86453 2.30776,3.8398 1.96804,4.38949 -0.38308,0.61983 -4.49868,0.79113 -10.83573,0.45099 l -10.21804,-0.54844 3.19567,2.04448 c 7.49104,4.79253 8.78122,12.86308 2.9832,18.6611 -7.62621,7.62621 -21.43903,4.79569 -24.69163,-5.05981 -0.9614,-2.91304 -0.8512,-4.07495 0.68324,-7.20407 1.00624,-2.05197 3.35857,-4.7493 5.2274,-5.99405 4.4831,-2.98602 1.5378,-3.04947 -5.53206,-0.11918 -5.35411,2.21915 -7.97912,2.02727 -9.00978,-0.65858 -0.99051,-2.58124 2.35957,-5.1432 9.89276,-7.56544 3.92245,-1.26124 6.70861,-2.41137 6.19146,-2.55585 -0.51714,-0.14449 -6.71867,-1.21739 -13.78116,-2.38424 -16.37369,-2.70521 -36.84887,-7.75287 -52.1591,-12.85856 -14.01549,-4.67391 -13.20929,-4.94692 -18.83584,6.37865 -5.92529,11.92688 -7.15106,17.42799 -7.1303,32 0.0163,11.47137 0.41356,14.52863 3.37813,26 12.20689,47.23441 25.06758,66.48069 48.77933,72.99922 6.56491,1.80475 23.40983,1.80102 31.07784,-0.007 z m -16.28085,-25.42353 c -10.73656,-3.82408 -24.48831,-12.28433 -24.48831,-15.06552 0,-1.71108 7.14749,-7.14903 16.26269,-12.37298 7.61827,-4.36605 17.34024,-7.63033 22.72534,-7.63033 9.93583,0 15.41301,9.25553 13.0228,22.00637 -1.16601,6.22015 -3.21796,9.48855 -8.00066,12.74363 -4.11233,2.79883 -12.18865,2.93073 -19.52186,0.31883 z m -40.17307,-63.13963 c -1.75163,-0.52392 -4.50745,-2.27525 -6.12406,-3.89186 -4.95118,-4.95119 -4.95606,-11.11861 -0.0127,-16.06196 11.13048,-11.13048 30.65166,0.27633 23.63187,13.8088 -2.55834,4.93188 -11.29335,7.99998 -17.4951,6.14502 z m 0.68476,-9.99494 c 0,-1.68616 0.48646,-3.9747 1.08102,-5.08565 1.50614,-2.81425 0.44417,-3.42275 -2.54981,-1.46102 -2.75414,1.80459 -3.46252,6.2811 -1.33121,8.41241 1.9547,1.9547 2.8,1.39145 2.8,-1.86574 z m -23.06319,-14.78434 c -2.07276,-1.67842 -2.07743,-1.7547 -0.246,-4.01642 2.75709,-3.40486 16.65985,-7.2376 28.30919,-7.80434 8.29663,-0.40364 9.9048,-0.20646 12.69567,1.55659 3.91185,2.4712 6.96651,6.85207 5.67693,8.14165 -0.56627,0.56627 -6.53508,0.50025 -15.39865,-0.17032 -14.31291,-1.08283 -14.55434,-1.06665 -21.6991,1.45437 -6.87168,2.42465 -7.32853,2.46567 -9.33804,0.83847 z m 99.42833,16.7775 c 2.84961,-2.2415 3.47099,-5.98861 1.29285,-7.7963 -1.5176,-1.25949 -2.65799,-0.5272 -2.65799,1.70681 0,2.58485 -3.17648,5.1607 -6.40499,5.19387 -2.93778,0.0302 -2.9964,0.10639 -1.15388,1.5 2.70203,2.04371 5.82652,1.83211 8.92401,-0.60438 z m 24.80052,-34.62312 c 6.28296,-2.85114 8.2796,-6.03911 7.4721,-11.93049 -1.55831,-11.36912 -13.52243,-25.58392 -26.81807,-31.86309 -19.00655,-8.97627 -47.46743,-8.17943 -77.17384,2.1607 -16.92333,5.89062 -32.69769,14.81765 -31.00964,17.54897 1.08919,1.76234 14.25234,7.3697 27.36379,11.65668 19.32465,6.31848 40.51764,11.22877 62.5,14.48089 1.65,0.24411 9.75,0.35827 18,0.25369 12.88236,-0.16329 15.65868,-0.48903 19.66566,-2.30735 z"
         id="path4155"
         inkscape:connector-curvature="0" />
      <path
         style="fill:#a04f00"
         d="m -116.58545,714.19021 c -16.5316,-4.4459 -29.9578,-16.85889 -38.49297,-35.58809 -4.00626,-8.79115 -10.3327,-28.01761 -14.25813,-43.33136 -2.47296,-9.6474 -2.81483,-12.78297 -2.78029,-25.5 0.0353,-12.97897 0.31907,-15.33919 2.70556,-22.5 1.46639,-4.4 4.49432,-11.11735 6.72873,-14.92745 2.23441,-3.8101 3.84198,-7.50227 3.57239,-8.20482 -0.2696,-0.70255 -2.4246,-2.25013 -4.7889,-3.43906 -12.40228,-6.23672 -10.37647,-10.82668 9.20128,-20.84773 11.18387,-5.72457 24.01185,-10.25827 37.66212,-13.31065 13.20453,-2.9527 40.39585,-3.22071 50.26564,-0.49544 10.74883,2.96799 18.97283,7.6146 26.18054,14.79214 12.29535,12.2439 17.19181,26.85726 11.87921,35.45322 -2.36515,3.82689 -2.37729,3.62583 0.96531,15.97979 5.17029,19.10896 0.75958,51.90865 -10.89406,81.01223 -9.16996,22.90088 -24.17134,36.65001 -44.74419,41.00913 -8.6772,1.83858 -26.18658,1.78484 -33.20224,-0.10191 z m 32.65683,-4.92709 c 21.4314,-5.05289 35.01974,-19.68809 44.09518,-47.49236 8.5032,-26.05108 11.31568,-50.53956 7.65258,-66.63169 -2.19853,-9.6582 -3.25939,-11.00234 -7.51324,-9.51944 -1.81617,0.63312 -4.35998,1.15113 -5.6529,1.15113 -2.95655,0 -2.93765,0.36402 0.23495,4.52351 1.42215,1.86453 2.30776,3.8398 1.96804,4.38949 -0.38308,0.61983 -4.49868,0.79113 -10.83573,0.45099 l -10.21804,-0.54844 3.19567,2.04448 c 7.49104,4.79253 8.78122,12.86308 2.9832,18.6611 -7.62621,7.62621 -21.43903,4.79569 -24.69163,-5.05981 -0.9614,-2.91304 -0.8512,-4.07495 0.68324,-7.20407 1.00624,-2.05197 3.35857,-4.7493 5.2274,-5.99405 4.4831,-2.98602 1.5378,-3.04947 -5.53206,-0.11918 -5.35411,2.21915 -7.97912,2.02727 -9.00978,-0.65858 -0.99051,-2.58124 2.35957,-5.1432 9.89276,-7.56544 3.92245,-1.26124 6.70861,-2.41137 6.19146,-2.55585 -0.51714,-0.14449 -6.71867,-1.21739 -13.78116,-2.38424 -16.37369,-2.70521 -36.84887,-7.75287 -52.1591,-12.85856 -14.01549,-4.67391 -13.20929,-4.94692 -18.83584,6.37865 -5.92529,11.92688 -7.15106,17.42799 -7.1303,32 0.0163,11.47137 0.41356,14.52863 3.37813,26 12.20689,47.23441 25.06758,66.48069 48.77933,72.99922 6.56491,1.80475 23.40983,1.80102 31.07784,-0.007 z m -16.28085,-25.42353 c -10.73656,-3.82408 -24.48831,-12.28433 -24.48831,-15.06552 0,-1.71108 7.14749,-7.14903 16.26269,-12.37298 7.61827,-4.36605 17.34024,-7.63033 22.72534,-7.63033 9.93583,0 15.41301,9.25553 13.0228,22.00637 -1.16601,6.22015 -3.21796,9.48855 -8.00066,12.74363 -4.11233,2.79883 -12.18865,2.93073 -19.52186,0.31883 z m -40.17307,-63.13963 c -1.75163,-0.52392 -4.50745,-2.27525 -6.12406,-3.89186 -4.95118,-4.95119 -4.95606,-11.11861 -0.0127,-16.06196 11.13048,-11.13048 30.65166,0.27633 23.63187,13.8088 -2.55834,4.93188 -11.29335,7.99998 -17.4951,6.14502 z m 1.68476,-9.80676 c 0,-2.22676 0.63859,-4.40754 1.5,-5.12244 4.30324,-3.57137 -0.40427,-5.43634 -4.86514,-1.92742 -3.04977,2.39895 -3.47444,6.34221 -0.97987,9.09868 2.73885,3.0264 4.34501,2.26904 4.34501,-2.04882 z m -24.06319,-14.97252 c -2.07276,-1.67842 -2.07743,-1.7547 -0.246,-4.01642 2.75709,-3.40486 16.65985,-7.2376 28.30919,-7.80434 8.29663,-0.40364 9.9048,-0.20646 12.69567,1.55659 3.91185,2.4712 6.96651,6.85207 5.67693,8.14165 -0.56627,0.56627 -6.53508,0.50025 -15.39865,-0.17032 -14.31291,-1.08283 -14.55434,-1.06665 -21.6991,1.45437 -6.87168,2.42465 -7.32853,2.46567 -9.33804,0.83847 z m 99.09836,18.33189 c 3.41818,-1.76761 4.70152,-5.56953 3.08074,-9.12676 -1.44042,-3.16137 -4.48752,-2.75902 -4.96173,0.65517 -0.1902,1.36938 -0.8078,3.05228 -1.37244,3.73978 -1.27314,1.55014 -5.99519,1.63655 -7.49461,0.13713 -1.45909,-1.45909 -3.36167,-0.24495 -2.62488,1.67508 0.74429,1.9396 5.19806,4.34658 8.13741,4.39775 1.26481,0.022 3.62079,-0.64314 5.23551,-1.47815 z m 25.13049,-36.17751 c 6.28296,-2.85114 8.2796,-6.03911 7.4721,-11.93049 -1.55831,-11.36912 -13.52243,-25.58392 -26.81807,-31.86309 -19.00655,-8.97627 -47.46743,-8.17943 -77.17384,2.1607 -16.92333,5.89062 -32.69769,14.81765 -31.00964,17.54897 1.08919,1.76234 14.25234,7.3697 27.36379,11.65668 19.32465,6.31848 40.51764,11.22877 62.5,14.48089 1.65,0.24411 9.75,0.35827 18,0.25369 12.88236,-0.16329 15.65868,-0.48903 19.66566,-2.30735 z"
         id="path4153"
         inkscape:connector-curvature="0" />
      <path
         style="fill:#5d2900"
         d="m -116.58545,714.19021 c -16.5316,-4.4459 -29.9578,-16.85889 -38.49297,-35.58809 -4.00626,-8.79115 -10.3327,-28.01761 -14.25813,-43.33136 -2.47296,-9.6474 -2.81483,-12.78297 -2.78029,-25.5 0.0353,-12.97897 0.31907,-15.33919 2.70556,-22.5 1.46639,-4.4 4.49432,-11.11735 6.72873,-14.92745 2.23441,-3.8101 3.84198,-7.50227 3.57239,-8.20482 -0.2696,-0.70255 -2.4246,-2.25013 -4.7889,-3.43906 -12.40228,-6.23672 -10.37647,-10.82668 9.20128,-20.84773 11.18387,-5.72457 24.01185,-10.25827 37.66212,-13.31065 13.20453,-2.9527 40.39585,-3.22071 50.26564,-0.49544 10.74883,2.96799 18.97283,7.6146 26.18054,14.79214 12.29535,12.2439 17.19181,26.85726 11.87921,35.45322 -2.36515,3.82689 -2.37729,3.62583 0.96531,15.97979 5.17029,19.10896 0.75958,51.90865 -10.89406,81.01223 -9.16996,22.90088 -24.17134,36.65001 -44.74419,41.00913 -8.6772,1.83858 -26.18658,1.78484 -33.20224,-0.10191 z m 33.38767,-4.01359 c 23.0806,-5.53713 37.13469,-22.03009 46.36068,-54.40586 7.4626,-26.18767 9.3325,-45.83254 5.81669,-61.10936 -2.49948,-10.86072 -3.07654,-11.44999 -9.76531,-9.97197 -2.97663,0.65775 -6.48888,1.41985 -7.80499,1.69355 l -2.39293,0.49763 3.34098,3.44702 c 1.97308,2.0357 2.95282,3.77774 2.39293,4.25476 -0.52143,0.44426 -6.91671,0.36909 -14.21173,-0.16704 -12.96558,-0.95287 -13.43752,-0.91563 -20.99752,1.65709 -6.93126,2.35875 -7.88974,2.47331 -9.23631,1.10398 -1.33825,-1.36088 -1.28386,-1.68996 0.49751,-3.01045 1.1,-0.8154 5.72068,-2.61762 10.26819,-4.00494 7.82103,-2.38598 9.98229,-4.39027 4.73408,-4.39027 -4.3374,0 -30.818,-4.92115 -42.57243,-7.91165 -6.36359,-1.619 -17.35047,-4.82416 -24.41529,-7.1226 l -12.84512,-4.17896 -1.84789,2.3566 c -3.63222,4.63214 -8.86707,16.49829 -10.95457,24.83137 -3.2082,12.80679 -2.29467,26.72275 3.07823,46.89101 11.29955,42.41516 22.75063,60.07657 44.3099,68.34075 9.29754,3.56396 24.31678,4.06095 36.2449,1.19934 z m -13,-26.12978 c -7.50807,-1.84668 -27.5,-12.8974 -27.5,-15.20087 0,-1.6235 10.99642,-8.9696 20.5,-13.69493 14.41211,-7.16593 24.07874,-6.96316 27.98307,0.58699 2.3906,4.62291 2.00539,15.65638 -0.73307,20.99685 -3.46909,6.76535 -11.16876,9.54558 -20.25,7.31196 z m 13.4049,-6.64155 c 2.32671,-1.87893 4.0951,-7.27319 4.0951,-12.49163 0,-9.54739 -5.19982,-11.75111 -17.08619,-7.24126 -7.16911,2.72006 -18.41381,9.50776 -18.41381,11.11523 0,1.62718 11.65719,7.53066 18.56295,9.40072 5.58078,1.51125 10.36188,1.21972 12.84195,-0.78306 z m -60.59108,-59.58476 c -3.88232,-2.36721 -5.31382,-4.8622 -5.31382,-9.26152 0,-6.2838 5.42793,-10.78825 13,-10.78825 7.67567,0 13,4.5052 13,11 0,1.95524 -0.70232,4.55769 -1.5607,5.78321 -3.67742,5.25024 -13.20374,6.8773 -19.12548,3.26656 z m 4.68618,-6.92733 c 0,-2.22676 0.63859,-4.40754 1.5,-5.12244 4.30324,-3.57137 -0.40427,-5.43634 -4.86514,-1.92742 -3.04977,2.39895 -3.47444,6.34221 -0.97987,9.09868 2.73885,3.0264 4.34501,2.26904 4.34501,-2.04882 z m 63.5,7.32139 c -4.46767,-2.29913 -6.45263,-5.39921 -6.47776,-10.11691 -0.0399,-7.48757 7.60585,-12.55728 16.43885,-10.9002 1.9036,0.35712 4.8286,2.01682 6.5,3.68822 9.55354,9.55354 -3.94893,23.76784 -16.46109,17.32889 z m 11.53517,-3.96202 c 3.41818,-1.76761 4.70152,-5.56953 3.08074,-9.12676 -1.44042,-3.16137 -4.48752,-2.75902 -4.96173,0.65517 -0.1902,1.36938 -0.8078,3.05228 -1.37244,3.73978 -1.27314,1.55014 -5.99519,1.63655 -7.49461,0.13713 -1.45909,-1.45909 -3.36167,-0.24495 -2.62488,1.67508 0.74429,1.9396 5.19806,4.34658 8.13741,4.39775 1.26481,0.022 3.62079,-0.64314 5.23551,-1.47815 z m -99.03517,-20.40996 c 0,-1.4297 1.48645,-2.48768 5.75,-4.09257 13.08964,-4.92721 27.57155,-6.34412 33.94246,-3.32093 3.15616,1.4977 6.32237,5.66015 5.17682,6.8057 -0.25058,0.25058 -4.48618,0.0317 -9.41244,-0.48646 -13.70406,-1.44136 -19.85923,-1.19658 -25.69611,1.02191 -6.8008,2.58484 -9.76073,2.60678 -9.76073,0.0724 z m 124,-14.72283 c 6.68685,-3.0591 8.50998,-5.58551 8.44749,-11.70609 -0.0689,-6.74792 -4.90183,-15.90345 -12.41085,-23.51121 -17.9438,-18.17976 -49.14186,-21.73923 -87.52123,-9.98552 -16.9604,5.19413 -37.51541,15.88323 -37.51541,19.50892 0,4.44202 41.62798,18.49226 72,24.30138 17.12373,3.27518 23.75214,3.90763 38.5,3.67347 11.69513,-0.18569 14.74085,-0.56121 18.5,-2.28095 z"
         id="path4151"
         inkscape:connector-curvature="0" />
      <path
         style="fill:#161007"
         d="m -116.58545,714.19021 c -16.5316,-4.4459 -29.9578,-16.85889 -38.49297,-35.58809 -4.00626,-8.79115 -10.3327,-28.01761 -14.25813,-43.33136 -2.47296,-9.6474 -2.81483,-12.78297 -2.78029,-25.5 0.0353,-12.97897 0.31907,-15.33919 2.70556,-22.5 1.46639,-4.4 4.49432,-11.11735 6.72873,-14.92745 2.23441,-3.8101 3.84198,-7.50227 3.57239,-8.20482 -0.2696,-0.70255 -2.4246,-2.25013 -4.7889,-3.43906 -12.40228,-6.23672 -10.37647,-10.82668 9.20128,-20.84773 11.18387,-5.72457 24.01185,-10.25827 37.66212,-13.31065 13.20453,-2.9527 40.39585,-3.22071 50.26564,-0.49544 10.74883,2.96799 18.97283,7.6146 26.18054,14.79214 12.29535,12.2439 17.19181,26.85726 11.87921,35.45322 -2.36515,3.82689 -2.37729,3.62583 0.96531,15.97979 5.17029,19.10896 0.75958,51.90865 -10.89406,81.01223 -9.16996,22.90088 -24.17134,36.65001 -44.74419,41.00913 -8.6772,1.83858 -26.18658,1.78484 -33.20224,-0.10191 z m 37.93577,-4.1854 c 9.89777,-3.54551 14.31832,-6.38075 22.02218,-14.12454 11.42452,-11.48374 18.09559,-26.38125 24.37381,-54.43046 4.81429,-21.50883 5.13776,-37.30581 1.04796,-51.17905 -2.40895,-8.17154 -1.99868,-7.97361 -12.37252,-5.96886 -5.01574,0.9693 -9.11953,2.09291 -9.11953,2.49692 0,0.40401 1.58343,1.9423 3.51873,3.41843 1.93531,1.47613 3.32895,2.99204 3.09699,3.36869 -0.23195,0.37665 -6.42788,0.28902 -13.76873,-0.19472 -12.92514,-0.85175 -13.58135,-0.79779 -20.76185,1.70712 -4.07818,1.42267 -7.81253,2.3409 -8.29856,2.04052 -2.51458,-1.5541 4.85299,-4.9796 17.96342,-8.35197 5.06485,-1.30282 5.49078,-2.7475 1,-3.39175 -31.57728,-4.53012 -47.27592,-7.95728 -70.0696,-15.29687 -16.3463,-5.26352 -15.27864,-5.60927 -21.61088,6.99824 -9.56485,19.0436 -10.40999,35.29784 -3.26572,62.80799 11.65734,44.8884 25.28518,64.60765 49.30853,71.34856 7.80035,2.18876 29.37647,1.4596 36.93577,-1.24825 z m -17.5481,-26.8897 c -6.90696,-1.81906 -26.5,-12.4342 -26.5,-14.3572 0,-1.32579 13.00786,-9.61457 21.17587,-13.49354 12.53403,-5.95238 22.10069,-5.72705 25.37129,0.59758 1.84902,3.57562 1.89737,14.92978 0.0817,19.19093 -2.42613,5.69386 -5.94384,8.0614 -12.39258,8.3406 -3.15496,0.1366 -6.6363,0.0113 -7.7363,-0.27837 z m 12.41481,-3.8003 c 3.76925,-1.94915 6.0884,-7.18126 6.07045,-13.69518 -0.0299,-10.84199 -4.51033,-13.68505 -15.82095,-10.03914 -8.70222,2.80511 -22.16431,10.78865 -22.16431,13.14429 0,3.2014 18.97002,11.85141 26.29966,11.9922 1.53981,0.0296 4.06663,-0.6014 5.61515,-1.40217 z m -59.13967,-62.10285 c -3.3479,-1.81684 -4.77514,-4.33983 -4.77514,-8.4412 0,-6.2749 4.47012,-10 12,-10 7.52988,0 12,3.7251 12,10 0,1.72232 -0.46334,3.99724 -1.02964,5.05539 -2.45225,4.58206 -12.53392,6.45808 -18.19522,3.38581 z m 4.22486,-6.31876 c 0,-2.22676 0.63859,-4.40754 1.5,-5.12244 4.30324,-3.57137 -0.40427,-5.43634 -4.86514,-1.92742 -3.04977,2.39895 -3.47444,6.34221 -0.97987,9.09868 2.73885,3.0264 4.34501,2.26904 4.34501,-2.04882 z m 64.5,6.71058 c -4.77246,-2.63955 -6.5,-5.12003 -6.5,-9.33302 0,-4.28247 1.85906,-6.88991 6.68426,-9.37504 4.58389,-2.36085 10.31421,-1.15348 15.06574,3.17432 1.6429,1.49639 2.25,3.16948 2.25,6.20072 0,4.28247 -1.85906,6.88991 -6.68426,9.37504 -2.76035,1.42167 -8.20758,1.4005 -10.81574,-0.042 z m 10.53517,-3.35121 c 3.41818,-1.76761 4.70152,-5.56953 3.08074,-9.12676 -1.44042,-3.16137 -4.48752,-2.75902 -4.96173,0.65517 -0.1902,1.36938 -0.8078,3.05228 -1.37244,3.73978 -1.27314,1.55014 -5.99519,1.63655 -7.49461,0.13713 -1.45909,-1.45909 -3.36167,-0.24495 -2.62488,1.67508 0.74429,1.9396 5.19806,4.34658 8.13741,4.39775 1.26481,0.022 3.62079,-0.64314 5.23551,-1.47815 z m -97.80986,-20.73181 c 0.21559,-0.6875 4.19059,-2.55734 8.83333,-4.1552 7.03582,-2.42147 10.14307,-2.92099 18.66147,-3 9.84492,-0.0913 10.32021,0.005 12.94697,2.6249 1.49977,1.49583 2.52572,2.88703 2.27989,3.09156 -0.24583,0.20453 -6.58821,-0.084 -14.09416,-0.64117 -12.90051,-0.95762 -13.97304,-0.89423 -19.60267,1.15843 -6.73847,2.45697 -9.59788,2.74893 -9.02483,0.92148 z m 121.88063,-13.1925 c 10.97502,-3.92526 13.17043,-11.69206 6.83379,-24.17623 -7.1045,-13.99701 -21.24727,-24.4403 -37.93973,-28.01543 -16.47221,-3.52795 -41.17026,-1.24149 -62.36985,5.77399 -17.53107,5.80147 -36.51551,16.59603 -35.39449,20.1253 1.16305,3.66163 30.41438,14.5908 55.26434,20.6484 10.76501,2.62416 31.1861,6.39691 40.5,7.48228 7.98128,0.93009 28.56058,-0.21265 33.10594,-1.83831 z"
         id="path4149"
         inkscape:connector-curvature="0" />
    </g>
  </g>
</svg>
